<?xml version="1.0" standalone="no"?>
<!DOCTYPE svg PUBLIC "-//W3C//DTD SVG 20010904//EN"
 "http://www.w3.org/TR/2001/REC-SVG-20010904/DTD/svg10.dtd">
<svg version="1.0" xmlns="http://www.w3.org/2000/svg"
 width="497.000000pt" height="225.000000pt" viewBox="0 0 497.000000 225.000000"
 preserveAspectRatio="xMidYMid meet">

<g transform="translate(0.000000,225.000000) scale(0.100000,-0.100000)"
fill="#000000" stroke="none">
<path d="M1769 2216 c-196 -41 -368 -175 -459 -355 -65 -129 -63 -119 -67
-558 l-4 -402 33 -6 c18 -3 87 -5 153 -3 l120 4 5 374 5 375 27 57 c129 276
503 286 645 16 l28 -53 3 -378 3 -378 25 -9 c28 -11 214 -13 263 -4 l32 7 -4
386 c-4 430 -4 431 -76 576 -105 213 -324 352 -566 361 -60 2 -126 -2 -166
-10z"/>
<path d="M3146 2008 c-180 -34 -331 -183 -383 -379 -25 -97 -23 -274 4 -364
24 -74 77 -171 121 -219 43 -46 140 -105 211 -127 77 -24 227 -28 306 -9 170
42 287 170 329 363 l6 27 -120 0 -121 0 -17 -31 c-59 -108 -106 -140 -204
-141 -107 0 -171 38 -213 128 -32 68 -45 173 -33 271 21 174 103 262 246 263
97 0 134 -23 205 -124 18 -26 20 -26 139 -26 l121 0 -7 43 c-10 67 -71 181
-119 222 -53 46 -120 81 -194 100 -63 16 -200 18 -277 3z"/>
<path d="M4286 2004 c-87 -21 -170 -70 -232 -136 -94 -102 -132 -201 -141
-368 -16 -297 120 -513 369 -585 38 -11 96 -16 166 -17 90 0 120 5 187 27 102
33 177 85 236 163 81 105 93 148 97 356 3 174 2 182 -24 254 -56 154 -179 265
-341 307 -72 19 -238 18 -317 -1z m267 -228 c46 -19 86 -63 116 -126 34 -73
42 -246 16 -336 -43 -147 -152 -215 -299 -184 -73 15 -129 63 -164 140 -23 49
-26 68 -26 180 -1 95 3 137 17 175 30 87 90 145 172 166 39 10 128 2 168 -15z"/>
<path d="M104 1985 c-4 -9 -4 -182 -1 -383 6 -394 12 -448 61 -522 80 -121
213 -183 394 -182 198 1 336 72 402 205 42 86 51 200 48 582 l-3 310 -111 3
c-98 2 -114 0 -135 -17 l-24 -19 -5 -369 c-6 -408 -7 -415 -73 -450 -44 -23
-160 -23 -204 0 -66 35 -67 42 -73 449 -5 335 -7 369 -23 385 -26 26 -244 33
-253 8z"/>
<path d="M2491 655 c1 -47 -2 -85 -7 -85 -5 0 -24 5 -43 11 -41 14 -139 6
-169 -12 -32 -20 -42 -61 -42 -166 0 -108 16 -158 55 -173 35 -13 134 -13 175
1 25 9 34 9 40 -1 4 -6 18 -10 31 -8 l24 3 3 258 2 257 -35 0 -36 0 2 -85z
m-27 -125 c26 -9 26 -10 26 -124 0 -136 -3 -141 -95 -141 -91 0 -95 5 -95 139
0 74 4 116 12 124 14 14 116 16 152 2z"/>
<path d="M198 583 c-19 -3 -28 -10 -28 -24 0 -17 8 -19 89 -19 102 0 121 -10
121 -66 0 -34 0 -34 -47 -35 -88 -1 -155 -15 -169 -34 -37 -51 -24 -152 21
-173 34 -15 157 -16 173 0 8 8 15 8 26 -1 8 -7 25 -11 38 -9 23 3 23 4 23 160
0 149 -1 159 -22 180 -19 19 -35 22 -110 24 -48 1 -100 0 -115 -3z m182 -248
c0 -43 -4 -56 -19 -65 -27 -14 -124 -13 -139 2 -13 13 -17 100 -5 111 3 4 42
7 85 7 l78 0 0 -55z"/>
<path d="M934 583 c-12 -2 -32 -15 -45 -29 -22 -23 -24 -36 -27 -133 -4 -124
10 -175 53 -191 15 -6 69 -10 121 -10 93 0 94 0 94 24 0 24 -2 24 -86 22 -111
-1 -114 2 -114 139 0 137 2 139 113 133 84 -4 87 -4 87 18 0 16 -8 23 -31 28
-34 6 -130 6 -165 -1z"/>
<path d="M1568 583 c-19 -3 -28 -10 -28 -24 0 -17 8 -19 93 -19 105 0 117 -6
117 -61 l0 -36 -92 -7 c-53 -4 -103 -13 -115 -21 -44 -30 -42 -138 4 -175 20
-16 40 -20 97 -20 39 0 78 4 86 10 9 5 19 5 27 -1 6 -6 22 -9 35 -7 23 3 23 4
23 160 0 149 -1 159 -22 180 -19 19 -35 22 -110 24 -48 1 -100 0 -115 -3z
m182 -248 c0 -64 -13 -75 -85 -75 -67 0 -85 13 -85 60 0 68 3 70 91 70 l79 0
0 -55z"/>
<path d="M3042 579 c-56 -17 -72 -57 -72 -179 0 -116 8 -138 60 -165 34 -17
174 -21 215 -5 35 13 30 46 -5 43 -161 -13 -200 1 -200 72 l0 45 120 0 120 0
0 54 c0 68 -12 100 -45 122 -31 20 -145 28 -193 13z m156 -51 c7 -7 12 -31 12
-55 l0 -43 -85 0 -85 0 0 45 c0 31 5 47 18 54 24 14 125 14 140 -1z"/>
<path d="M3815 583 c-11 -3 -26 -10 -33 -16 -10 -8 -16 -7 -21 2 -5 7 -21 11
-37 9 l-29 -3 0 -175 0 -175 33 -3 32 -3 0 145 c0 138 1 146 22 160 33 23 113
21 138 -4 18 -18 20 -33 20 -160 l0 -140 30 0 30 0 0 133 c0 167 6 181 77 185
91 5 92 4 95 -166 l3 -147 30 0 30 0 3 152 c2 148 2 152 -22 180 -23 26 -29
28 -98 28 -55 0 -81 -5 -102 -19 -18 -12 -31 -14 -35 -8 -16 26 -106 40 -166
25z"/>
<path d="M4620 575 c0 -3 29 -82 65 -175 36 -93 65 -176 65 -183 0 -7 -11 -42
-25 -77 -14 -35 -25 -65 -25 -67 0 -2 15 -3 34 -3 31 0 35 4 49 43 8 23 47
133 86 244 39 111 71 207 71 213 0 7 -13 10 -31 8 -31 -3 -32 -5 -68 -123 -55
-179 -48 -174 -88 -60 -67 195 -62 185 -99 185 -19 0 -34 -2 -34 -5z"/>
</g>
</svg>
